<svg aria-hidden="true" style="position: absolute; width: 0; height: 0; overflow: hidden;" version="1.1" xmlns="http://www.w3.org/2000/svg" xmlns:xlink="http://www.w3.org/1999/xlink">
<defs>
<symbol id="icon-mdi_user" viewBox="0 0 32 32">
<path d="M16 5.333c1.415 0 2.771 0.562 3.771 1.562s1.562 2.357 1.562 3.771-0.562 2.771-1.562 3.771c-1 1-2.357 1.562-3.771 1.562s-2.771-0.562-3.771-1.562c-1-1-1.562-2.357-1.562-3.771s0.562-2.771 1.562-3.771c1-1 2.357-1.562 3.771-1.562zM16 18.667c5.893 0 10.667 2.387 10.667 5.333v2.667h-21.333v-2.667c0-2.947 4.773-5.333 10.667-5.333z"></path>
</symbol>
<symbol id="icon-ic_baseline-email" viewBox="0 0 32 32">
<path d="M26.667 5.333h-21.333c-1.467 0-2.653 1.2-2.653 2.667l-0.013 16c0 1.467 1.2 2.667 2.667 2.667h21.333c1.467 0 2.667-1.2 2.667-2.667v-16c0-1.467-1.2-2.667-2.667-2.667zM26.667 10.667l-10.667 6.667-10.667-6.667v-2.667l10.667 6.667 10.667-6.667v2.667z"></path>
</symbol>
<symbol id="icon-material-symbols_lock" viewBox="0 0 32 32">
<path d="M8 29.333c-0.733 0-1.361-0.261-1.883-0.783s-0.783-1.15-0.784-1.884v-13.333c0-0.733 0.261-1.361 0.784-1.883s1.15-0.783 1.883-0.784h1.333v-2.667c0-1.844 0.65-3.416 1.951-4.716s2.872-1.95 4.716-1.951c1.844-0.001 3.416 0.649 4.717 1.951s1.951 2.873 1.949 4.716v2.667h1.333c0.733 0 1.361 0.261 1.884 0.784s0.784 1.15 0.783 1.883v13.333c0 0.733-0.261 1.361-0.783 1.884s-1.15 0.784-1.884 0.783h-16zM16 22.667c0.733 0 1.361-0.261 1.884-0.783s0.784-1.15 0.783-1.884c-0.001-0.734-0.262-1.362-0.783-1.883s-1.149-0.782-1.884-0.784c-0.735-0.002-1.363 0.26-1.883 0.784s-0.781 1.152-0.784 1.883c-0.003 0.731 0.259 1.359 0.784 1.884s1.153 0.786 1.883 0.783zM12 10.667h8v-2.667c0-1.111-0.389-2.056-1.167-2.833s-1.722-1.167-2.833-1.167c-1.111 0-2.056 0.389-2.833 1.167s-1.167 1.722-1.167 2.833v2.667z"></path>
</symbol>
<symbol id="icon-right-arrow" viewBox="0 0 32 32">
<path fill="#fff" style="fill: var(--color1, #fff)" d="M7.381 29.181c0.216 0.112 0.458 0.163 0.701 0.149s0.477-0.096 0.677-0.234l17.333-12c0.177-0.123 0.322-0.287 0.422-0.477s0.152-0.403 0.152-0.619-0.052-0.428-0.152-0.619c-0.1-0.191-0.245-0.355-0.422-0.477l-17.333-12c-0.2-0.138-0.434-0.219-0.677-0.234s-0.485 0.037-0.7 0.15c-0.215 0.113-0.396 0.283-0.522 0.491s-0.193 0.447-0.193 0.69v24c-0 0.243 0.067 0.482 0.193 0.69s0.307 0.378 0.522 0.491z"></path>
</symbol>
</defs>
</svg>